<svg width="52" height="31" viewBox="0 0 52 31" fill="none" xmlns="http://www.w3.org/2000/svg">
<g filter="url(#filter0_d_180_575)">
<path d="M4 5C4 2.23858 6.23858 0 9 0H42.1221C44.8835 0 47.1221 2.23858 47.1221 5V18C47.1221 20.7614 44.8835 23 42.1221 23H9.00001C6.23858 23 4 20.7614 4 18V5Z" fill="#37AFE2"/>
<path d="M12.8503 11.1945H12.2313V8.44456V8.13901H11.9257H10.9475V7.83331V7.52777L14.1879 7.52789V7.83331V8.13901H13.2096H12.904V8.44456V10.1526V10.5459L13.2851 10.4487L19.5842 8.84208L19.8876 8.76469L19.8028 8.46327L19.4305 7.13962L19.3678 6.9168H19.1364H17.3666V6.45298V6.3057H19.6146V6.30577L19.621 6.30563C19.7001 6.30397 19.7759 6.32776 19.8364 6.37089C19.8965 6.41385 19.9369 6.47259 19.9547 6.53574L19.9547 6.53576L20.8727 9.79729L20.6937 9.857L20.2226 9.95413L20.1353 9.64392L20.0546 9.35689L19.7657 9.43058L12.8503 11.1945ZM12.5677 16.0833C12.9845 16.0833 13.3871 15.9259 13.6861 15.6411C13.7771 15.5545 13.8189 15.44 13.8413 15.3596C13.8662 15.2703 13.8809 15.1702 13.8899 15.0703C13.9082 14.8698 13.9069 14.6313 13.8986 14.4011C13.8912 14.1956 13.8778 13.9887 13.8653 13.8101C13.8694 13.8004 13.8725 13.792 13.8748 13.7853C13.8979 13.7175 13.903 13.6485 13.9042 13.6006C13.9054 13.5478 13.9022 13.4939 13.8972 13.4454C13.8881 13.3565 13.8691 13.2497 13.8418 13.1771L13.8414 13.176C13.8364 13.1627 13.8175 13.1124 13.7773 13.0658C13.7605 13.0463 13.6918 12.9697 13.5698 12.9585C13.4171 12.9444 13.3231 13.0394 13.2882 13.0891C13.2656 13.1211 13.2528 13.1522 13.2457 13.1738C13.035 13.0783 12.8036 13.0278 12.5677 13.0278C12.1508 13.0278 11.7483 13.1853 11.4492 13.4701C11.1496 13.7553 10.9783 14.1454 10.9783 14.5556C10.9783 14.9658 11.1496 15.3559 11.4492 15.6411C11.7483 15.9259 12.1508 16.0833 12.5677 16.0833ZM12.5677 16.6944C11.963 16.6944 11.3859 16.4656 10.9627 16.0627C10.54 15.6603 10.3056 15.1179 10.3056 14.5556C10.3056 13.9933 10.54 13.4508 10.9627 13.0484C11.3859 12.6455 11.963 12.4167 12.5677 12.4167C13.1723 12.4167 13.7494 12.6455 14.1726 13.0484C14.5953 13.4508 14.8298 13.9933 14.8298 14.5556C14.8298 15.1179 14.5953 15.6603 14.1726 16.0627C13.7494 16.4656 13.1723 16.6944 12.5677 16.6944ZM20.9125 16.0833C21.4996 16.0833 22.0655 15.8615 22.4849 15.4621C22.9049 15.0623 23.1438 14.5167 23.1438 13.9445C23.1438 13.3722 22.9049 12.8267 22.4849 12.4268C22.0655 12.0275 21.4996 11.8056 20.9125 11.8056C20.3255 11.8056 19.7596 12.0275 19.3402 12.4268C18.9202 12.8267 18.6813 13.3722 18.6813 13.9445C18.6813 14.5167 18.9202 15.0623 19.3402 15.4621C19.7596 15.8615 20.3255 16.0833 20.9125 16.0833ZM20.9125 16.6944C20.1376 16.6944 19.3973 16.4013 18.8537 15.8838C18.3106 15.3667 18.0085 14.6688 18.0085 13.9445C18.0085 13.2201 18.3106 12.5222 18.8537 12.0052C19.3973 11.4877 20.1376 11.1945 20.9125 11.1945C21.6875 11.1945 22.4278 11.4877 22.9714 12.0052C23.5145 12.5222 23.8166 13.2201 23.8166 13.9445C23.8166 14.6688 23.5145 15.3667 22.9714 15.8838C22.4278 16.4013 21.6875 16.6944 20.9125 16.6944Z" fill="white" stroke="white" stroke-width="0.611103" stroke-linecap="round"/>
<path d="M37.2968 15.0994C36.8233 15.0994 36.3995 15.0107 36.0255 14.8331C35.6514 14.6532 35.3543 14.407 35.1341 14.0945C34.9163 13.782 34.8003 13.4245 34.7861 13.022H36.0645C36.0882 13.3203 36.2172 13.5642 36.4516 13.7536C36.686 13.9406 36.9677 14.0341 37.2968 14.0341C37.5548 14.0341 37.7845 13.9749 37.9857 13.8565C38.1869 13.7382 38.3456 13.5736 38.4616 13.3629C38.5776 13.1522 38.6344 12.9119 38.632 12.642C38.6344 12.3674 38.5764 12.1236 38.458 11.9105C38.3396 11.6974 38.1775 11.5305 37.9715 11.4098C37.7655 11.2867 37.5288 11.2251 37.2613 11.2251C37.0435 11.2228 36.8292 11.263 36.6185 11.3459C36.4078 11.4287 36.2409 11.5376 36.1178 11.6726L34.9282 11.4773L35.3081 7.72727H39.5269V8.82812H36.3983L36.1888 10.7564H36.2314C36.3664 10.5978 36.557 10.4664 36.8032 10.3622C37.0494 10.2557 37.3193 10.2024 37.6128 10.2024C38.0532 10.2024 38.4462 10.3066 38.7918 10.5149C39.1375 10.7209 39.4097 11.005 39.6086 11.3672C39.8074 11.7294 39.9069 12.1437 39.9069 12.6101C39.9069 13.0907 39.7956 13.5192 39.5731 13.8956C39.3529 14.2696 39.0463 14.5644 38.6533 14.7798C38.2627 14.9929 37.8105 15.0994 37.2968 15.0994Z" fill="white"/>
</g>
<defs>
<filter id="filter0_d_180_575" x="0" y="0" width="51.1221" height="31" filterUnits="userSpaceOnUse" color-interpolation-filters="sRGB">
<feFlood flood-opacity="0" result="BackgroundImageFix"/>
<feColorMatrix in="SourceAlpha" type="matrix" values="0 0 0 0 0 0 0 0 0 0 0 0 0 0 0 0 0 0 127 0" result="hardAlpha"/>
<feOffset dy="4"/>
<feGaussianBlur stdDeviation="2"/>
<feComposite in2="hardAlpha" operator="out"/>
<feColorMatrix type="matrix" values="0 0 0 0 0 0 0 0 0 0 0 0 0 0 0 0 0 0 0.1 0"/>
<feBlend mode="normal" in2="BackgroundImageFix" result="effect1_dropShadow_180_575"/>
<feBlend mode="normal" in="SourceGraphic" in2="effect1_dropShadow_180_575" result="shape"/>
</filter>
</defs>
</svg>
