<svg width="146" height="64" viewBox="0 0 146 64" fill="none" xmlns="http://www.w3.org/2000/svg">
<g filter="url(#filter0_d_152_128)">
<rect x="4" width="138" height="44" rx="5" fill="#FBFBFB"/>
<path d="M18.5824 15.9091L22.2259 26.571H22.3729L26.0163 15.9091H28.1513L23.4403 29H21.1584L16.4474 15.9091H18.5824ZM29.8883 29V19.1818H31.7995V29H29.8883ZM30.8535 17.6669C30.5211 17.6669 30.2356 17.5561 29.997 17.3345C29.7626 17.1087 29.6454 16.8402 29.6454 16.5291C29.6454 16.2138 29.7626 15.9453 29.997 15.7237C30.2356 15.4979 30.5211 15.3849 30.8535 15.3849C31.1859 15.3849 31.4693 15.4979 31.7037 15.7237C31.9423 15.9453 32.0616 16.2138 32.0616 16.5291C32.0616 16.8402 31.9423 17.1087 31.7037 17.3345C31.4693 17.5561 31.1859 17.6669 30.8535 17.6669ZM37.228 29.2173C36.6058 29.2173 36.0433 29.1023 35.5405 28.8722C35.0376 28.6378 34.6392 28.299 34.3452 27.8558C34.0554 27.4126 33.9105 26.8693 33.9105 26.2259C33.9105 25.6719 34.017 25.2159 34.2301 24.858C34.4432 24.5 34.7308 24.2166 35.093 24.0078C35.4553 23.799 35.8601 23.6413 36.3075 23.5348C36.755 23.4283 37.2109 23.3473 37.6754 23.2919C38.2635 23.2237 38.7408 23.1683 39.1072 23.1257C39.4737 23.0788 39.7401 23.0043 39.9062 22.902C40.0724 22.7997 40.1555 22.6335 40.1555 22.4034V22.3587C40.1555 21.8004 39.9979 21.3679 39.6825 21.0611C39.3714 20.7543 38.907 20.6009 38.2891 20.6009C37.6456 20.6009 37.1385 20.7436 36.7678 21.0291C36.4013 21.3104 36.1477 21.6236 36.0071 21.9688L34.2109 21.5597C34.424 20.9631 34.7351 20.4815 35.1442 20.1151C35.5575 19.7443 36.0327 19.4759 36.5696 19.3097C37.1065 19.1392 37.6712 19.054 38.2635 19.054C38.6555 19.054 39.071 19.1009 39.5099 19.1946C39.9531 19.2841 40.3665 19.4503 40.75 19.6932C41.1378 19.9361 41.4553 20.2834 41.7024 20.7351C41.9496 21.1825 42.0732 21.7642 42.0732 22.4801V29H40.2067V27.6577H40.13C40.0064 27.9048 39.821 28.1477 39.5739 28.3864C39.3267 28.625 39.0092 28.8232 38.6214 28.9808C38.2337 29.1385 37.7692 29.2173 37.228 29.2173ZM37.6435 27.6832C38.1719 27.6832 38.6236 27.5788 38.9986 27.37C39.3778 27.1612 39.6655 26.8885 39.8615 26.5518C40.0618 26.2109 40.1619 25.8466 40.1619 25.4588V24.1932C40.0938 24.2614 39.9616 24.3253 39.7656 24.3849C39.5739 24.4403 39.3544 24.4893 39.1072 24.532C38.8601 24.5703 38.6193 24.6065 38.3849 24.6406C38.1506 24.6705 37.9545 24.696 37.7969 24.7173C37.4261 24.7642 37.0874 24.843 36.7805 24.9538C36.478 25.0646 36.2351 25.2244 36.0518 25.4332C35.8729 25.6378 35.7834 25.9105 35.7834 26.2514C35.7834 26.7244 35.9581 27.0824 36.3075 27.3253C36.657 27.5639 37.1023 27.6832 37.6435 27.6832ZM50.68 15.9091L54.3235 26.571H54.4705L58.114 15.9091H60.2489L55.538 29H53.256L48.5451 15.9091H50.68ZM61.986 29V19.1818H63.8972V29H61.986ZM62.9512 17.6669C62.6188 17.6669 62.3333 17.5561 62.0946 17.3345C61.8603 17.1087 61.7431 16.8402 61.7431 16.5291C61.7431 16.2138 61.8603 15.9453 62.0946 15.7237C62.3333 15.4979 62.6188 15.3849 62.9512 15.3849C63.2836 15.3849 63.5669 15.4979 63.8013 15.7237C64.04 15.9453 64.1593 16.2138 64.1593 16.5291C64.1593 16.8402 64.04 17.1087 63.8013 17.3345C63.5669 17.5561 63.2836 17.6669 62.9512 17.6669ZM68.2262 25.6697L68.2134 23.3366H68.5458L72.4577 19.1818H74.7461L70.2844 23.9119H69.984L68.2262 25.6697ZM66.4684 29V15.9091H68.3796V29H66.4684ZM72.6687 29L69.1531 24.3338L70.4698 22.9979L75.0146 29H72.6687ZM79.3452 29.2173C78.723 29.2173 78.1605 29.1023 77.6577 28.8722C77.1548 28.6378 76.7564 28.299 76.4624 27.8558C76.1726 27.4126 76.0277 26.8693 76.0277 26.2259C76.0277 25.6719 76.1342 25.2159 76.3473 24.858C76.5604 24.5 76.848 24.2166 77.2102 24.0078C77.5724 23.799 77.9773 23.6413 78.4247 23.5348C78.8722 23.4283 79.3281 23.3473 79.7926 23.2919C80.3807 23.2237 80.858 23.1683 81.2244 23.1257C81.5909 23.0788 81.8572 23.0043 82.0234 22.902C82.1896 22.7997 82.2727 22.6335 82.2727 22.4034V22.3587C82.2727 21.8004 82.1151 21.3679 81.7997 21.0611C81.4886 20.7543 81.0241 20.6009 80.4062 20.6009C79.7628 20.6009 79.2557 20.7436 78.8849 21.0291C78.5185 21.3104 78.2649 21.6236 78.1243 21.9688L76.3281 21.5597C76.5412 20.9631 76.8523 20.4815 77.2614 20.1151C77.6747 19.7443 78.1499 19.4759 78.6868 19.3097C79.2237 19.1392 79.7884 19.054 80.3807 19.054C80.7727 19.054 81.1882 19.1009 81.6271 19.1946C82.0703 19.2841 82.4837 19.4503 82.8672 19.6932C83.255 19.9361 83.5724 20.2834 83.8196 20.7351C84.0668 21.1825 84.1903 21.7642 84.1903 22.4801V29H82.3239V27.6577H82.2472C82.1236 27.9048 81.9382 28.1477 81.6911 28.3864C81.4439 28.625 81.1264 28.8232 80.7386 28.9808C80.3509 29.1385 79.8864 29.2173 79.3452 29.2173ZM79.7607 27.6832C80.2891 27.6832 80.7408 27.5788 81.1158 27.37C81.495 27.1612 81.7827 26.8885 81.9787 26.5518C82.179 26.2109 82.2791 25.8466 82.2791 25.4588V24.1932C82.2109 24.2614 82.0788 24.3253 81.8828 24.3849C81.6911 24.4403 81.4716 24.4893 81.2244 24.532C80.9773 24.5703 80.7365 24.6065 80.5021 24.6406C80.2678 24.6705 80.0717 24.696 79.9141 24.7173C79.5433 24.7642 79.2045 24.843 78.8977 24.9538C78.5952 25.0646 78.3523 25.2244 78.169 25.4332C77.9901 25.6378 77.9006 25.9105 77.9006 26.2514C77.9006 26.7244 78.0753 27.0824 78.4247 27.3253C78.7741 27.5639 79.2195 27.6832 79.7607 27.6832Z" fill="black"/>
<path d="M79 56L71.2058 43.25H86.7942L79 56Z" fill="#FBFBFB"/>
<path d="M108.347 16.8792H107.113H106.702V17.2905V19.5896V20.1256L107.219 19.9869L115.291 17.8243L115.689 17.7179L115.582 17.3207L115.105 15.539L115.023 15.2341H114.708H112.46V14.6097V14.4115H115.321V14.4116L115.33 14.4114C115.422 14.4094 115.512 14.4383 115.585 14.4935C115.659 14.5488 115.712 14.6272 115.736 14.7162L115.736 14.7162L116.915 19.1154L116.693 19.193L116.117 19.3177L116.008 18.9099L115.902 18.5125L115.504 18.619L106.647 20.9921H105.879V17.2905V16.8792H105.468H104.234V16.4677V16.0565L108.347 16.0566V16.4677V16.8792ZM106.29 27.5727C106.836 27.5727 107.359 27.3561 107.744 26.9704C107.862 26.853 107.915 26.6996 107.943 26.5936C107.974 26.4748 107.993 26.3411 108.005 26.2074C108.028 25.9388 108.026 25.6186 108.016 25.3091C108.006 25.0311 107.989 24.7511 107.973 24.5097C107.979 24.4949 107.983 24.4826 107.986 24.4737C108.015 24.3847 108.021 24.2939 108.023 24.2304C108.024 24.1603 108.02 24.0887 108.014 24.0239C108.002 23.9049 107.978 23.7629 107.944 23.6669L107.943 23.6654C107.937 23.648 107.913 23.5811 107.862 23.5185C107.842 23.4947 107.749 23.3832 107.578 23.3666C107.362 23.3457 107.234 23.487 107.192 23.5501C107.169 23.585 107.154 23.6189 107.144 23.6455C106.879 23.5243 106.588 23.4598 106.29 23.4598C105.745 23.4598 105.222 23.6765 104.836 24.0622C104.451 24.4478 104.234 24.9709 104.234 25.5163C104.234 26.0617 104.451 26.5848 104.836 26.9704C105.222 27.3561 105.745 27.5727 106.29 27.5727ZM106.29 28.3953C105.527 28.3953 104.794 28.092 104.255 27.5521C103.715 27.0121 103.411 26.2798 103.411 25.5163C103.411 24.7527 103.715 24.0204 104.255 23.4805C104.794 22.9406 105.527 22.6373 106.29 22.6373C107.054 22.6373 107.786 22.9406 108.326 23.4805C108.866 24.0204 109.169 24.7527 109.169 25.5163C109.169 26.2798 108.866 27.0121 108.326 27.5521C107.786 28.092 107.054 28.3953 106.29 28.3953ZM116.984 27.5727C117.747 27.5727 118.48 27.2694 119.02 26.7295C119.56 26.1896 119.863 25.4573 119.863 24.6937C119.863 23.9301 119.56 23.1979 119.02 22.6579C118.48 22.118 117.747 21.8147 116.984 21.8147C116.22 21.8147 115.488 22.118 114.948 22.6579C114.408 23.1979 114.105 23.9301 114.105 24.6937C114.105 25.4573 114.408 26.1896 114.948 26.7295C115.488 27.2694 116.22 27.5727 116.984 27.5727ZM116.984 28.3953C116.002 28.3953 115.061 28.0053 114.366 27.3111C113.672 26.6169 113.282 25.6754 113.282 24.6937C113.282 23.712 113.672 22.7705 114.366 22.0763C115.061 21.3821 116.002 20.9921 116.984 20.9921C117.966 20.9921 118.907 21.3821 119.601 22.0763C120.295 22.7705 120.685 23.712 120.685 24.6937C120.685 25.6754 120.295 26.6169 119.601 27.3111C118.907 28.0053 117.966 28.3953 116.984 28.3953Z" fill="black" stroke="black" stroke-width="0.822577" stroke-linecap="round"/>
</g>
<defs>
<filter id="filter0_d_152_128" x="0" y="0" width="146" height="64" filterUnits="userSpaceOnUse" color-interpolation-filters="sRGB">
<feFlood flood-opacity="0" result="BackgroundImageFix"/>
<feColorMatrix in="SourceAlpha" type="matrix" values="0 0 0 0 0 0 0 0 0 0 0 0 0 0 0 0 0 0 127 0" result="hardAlpha"/>
<feOffset dy="4"/>
<feGaussianBlur stdDeviation="2"/>
<feComposite in2="hardAlpha" operator="out"/>
<feColorMatrix type="matrix" values="0 0 0 0 0 0 0 0 0 0 0 0 0 0 0 0 0 0 0.25 0"/>
<feBlend mode="normal" in2="BackgroundImageFix" result="effect1_dropShadow_152_128"/>
<feBlend mode="normal" in="SourceGraphic" in2="effect1_dropShadow_152_128" result="shape"/>
</filter>
</defs>
</svg>
