<svg width="20" height="15" viewBox="0 0 20 15" fill="none" xmlns="http://www.w3.org/2000/svg">
<path d="M5.63707 2.87922H4.32026H3.90897V3.29051V5.58961V6.11897L4.4219 5.98814L12.9008 3.82559L13.3092 3.72143L13.1951 3.31569L12.694 1.53399L12.6096 1.23407H12.298H9.91586V0.60973V0.411489H12.9418V0.41158L12.9504 0.411398C13.0569 0.409162 13.159 0.441186 13.2403 0.499241C13.3212 0.557058 13.3756 0.636137 13.3995 0.721135L13.3995 0.721159L14.6352 5.11136L14.3943 5.19173L13.7602 5.32248L13.6427 4.90491L13.534 4.51855L13.1451 4.61775L3.8366 6.99211H3.00344V3.29051V2.87922H2.59216H1.27534V2.46773V2.05646L5.63707 2.05663V2.46773V2.87922ZM1.29589 9.48757L1.0123 9.18968L1.29589 9.48757C1.86554 8.94526 2.6423 8.63726 3.45621 8.63726C4.27012 8.63726 5.04687 8.94526 5.61653 9.48757C6.1855 10.0292 6.50113 10.7594 6.50113 11.5163C6.50113 12.2731 6.1855 13.0033 5.61653 13.545C5.04687 14.0873 4.27012 14.3953 3.45621 14.3953C2.6423 14.3953 1.86554 14.0873 1.29589 13.545L1.0123 13.8429L1.29589 13.545C0.72692 13.0033 0.411289 12.2731 0.411289 11.5163C0.411289 10.7594 0.72692 10.0292 1.29589 9.48757ZM3.45621 13.5727C4.01726 13.5727 4.55916 13.3607 4.96175 12.9775C5.08419 12.8609 5.14046 12.7068 5.1706 12.5986C5.20408 12.4784 5.22386 12.3435 5.23607 12.2091C5.26058 11.9393 5.25896 11.6182 5.24778 11.3083C5.23779 11.0317 5.21972 10.7532 5.20296 10.5128C5.20843 10.4997 5.2126 10.4884 5.21567 10.4794C5.24683 10.3882 5.25366 10.2953 5.2552 10.2309C5.25691 10.1597 5.2526 10.0872 5.24588 10.0219C5.23356 9.90221 5.208 9.75852 5.17124 9.66078L5.1707 9.65933C5.16398 9.64139 5.13861 9.57363 5.08439 9.51089C5.06181 9.48477 4.96934 9.38159 4.80519 9.36647C4.59957 9.34752 4.47312 9.47544 4.42605 9.54231C4.39572 9.58541 4.3785 9.62725 4.36886 9.65628C4.08532 9.52778 3.77383 9.45984 3.45621 9.45984C2.89515 9.45984 2.35326 9.67183 1.95067 10.0551C1.54739 10.439 1.31681 10.9642 1.31681 11.5163C1.31681 12.0684 1.54739 12.5935 1.95067 12.9775C2.35326 13.3607 2.89515 13.5727 3.45621 13.5727ZM4.96175 10.0551C4.96158 10.0549 4.96141 10.0548 4.96125 10.0546C4.96182 10.0551 4.96211 10.0554 4.9621 10.0554C4.96209 10.0554 4.96197 10.0553 4.96175 10.0551ZM14.6889 13.5727C15.4791 13.5727 16.2408 13.2741 16.8054 12.7365C17.3707 12.1984 17.6923 11.464 17.6923 10.6937C17.6923 9.92343 17.3707 9.18905 16.8054 8.65087C16.2408 8.11334 15.4791 7.81469 14.6889 7.81469C13.8987 7.81469 13.137 8.11334 12.5724 8.65087C12.007 9.18905 11.6854 9.92343 11.6854 10.6937C11.6854 11.464 12.007 12.1984 12.5724 12.7365C13.137 13.2741 13.8987 13.5727 14.6889 13.5727ZM14.6889 14.3953C13.6458 14.3953 12.6493 14.0006 11.9176 13.3041C11.1866 12.6082 10.7799 11.6687 10.7799 10.6937C10.7799 9.71869 11.1866 8.77926 11.9176 8.08334C12.6493 7.38677 13.6458 6.99211 14.6889 6.99211C15.732 6.99211 16.7285 7.38677 17.4602 8.08334C18.1912 8.77926 18.5979 9.71869 18.5979 10.6937C18.5979 11.6687 18.1912 12.6082 17.4602 13.3041C16.7285 14.0006 15.732 14.3953 14.6889 14.3953Z" fill="black" stroke="black" stroke-width="0.822577" stroke-linecap="round"/>
</svg>
