<svg width="159" height="52" viewBox="0 0 159 52" fill="none" xmlns="http://www.w3.org/2000/svg">
<g filter="url(#filter0_d_180_634)">
<path d="M4 5C4 2.23858 6.23858 0 9 0H150C152.761 0 155 2.23858 155 5V39C155 41.7614 152.761 44 150 44H9C6.23858 44 4 41.7614 4 39V5Z" fill="#1C7CA5"/>
<path d="M21.7727 17.6136V16.3636H30.5V17.6136H26.8409V28H25.4318V17.6136H21.7727ZM33.8338 22.75V28H32.4929V16.3636H33.8338V20.6364H33.9474C34.152 20.1856 34.4588 19.8277 34.8679 19.5625C35.2808 19.2936 35.83 19.1591 36.5156 19.1591C37.1103 19.1591 37.6312 19.2784 38.0781 19.517C38.5251 19.7519 38.8717 20.1136 39.1179 20.6023C39.3679 21.0871 39.4929 21.7045 39.4929 22.4545V28H38.152V22.5455C38.152 21.8523 37.9721 21.3163 37.6122 20.9375C37.2562 20.5549 36.7618 20.3636 36.1293 20.3636C35.6899 20.3636 35.2959 20.4564 34.9474 20.642C34.6027 20.8277 34.33 21.0985 34.1293 21.4545C33.9323 21.8106 33.8338 22.2424 33.8338 22.75ZM41.946 28V19.2727H43.2869V28H41.946ZM42.6278 17.8182C42.3665 17.8182 42.1411 17.7292 41.9517 17.5511C41.7661 17.3731 41.6733 17.1591 41.6733 16.9091C41.6733 16.6591 41.7661 16.4451 41.9517 16.267C42.1411 16.089 42.3665 16 42.6278 16C42.8892 16 43.1127 16.089 43.2983 16.267C43.4877 16.4451 43.5824 16.6591 43.5824 16.9091C43.5824 17.1591 43.4877 17.3731 43.2983 17.5511C43.1127 17.7292 42.8892 17.8182 42.6278 17.8182ZM51.9247 21.2273L50.7202 21.5682C50.6444 21.3674 50.5327 21.1723 50.3849 20.983C50.241 20.7898 50.044 20.6307 49.794 20.5057C49.544 20.3807 49.224 20.3182 48.8338 20.3182C48.2997 20.3182 47.8546 20.4413 47.4986 20.6875C47.1463 20.9299 46.9702 21.2386 46.9702 21.6136C46.9702 21.947 47.0914 22.2102 47.3338 22.4034C47.5762 22.5966 47.955 22.7576 48.4702 22.8864L49.7656 23.2045C50.5459 23.3939 51.1274 23.6837 51.5099 24.0739C51.8925 24.4602 52.0838 24.9583 52.0838 25.5682C52.0838 26.0682 51.9399 26.5152 51.652 26.9091C51.3679 27.303 50.9702 27.6136 50.4588 27.8409C49.9474 28.0682 49.3527 28.1818 48.6747 28.1818C47.7846 28.1818 47.0478 27.9886 46.4645 27.6023C45.8812 27.2159 45.5118 26.6515 45.3565 25.9091L46.6293 25.5909C46.7505 26.0606 46.9796 26.4129 47.3168 26.6477C47.6577 26.8826 48.1027 27 48.652 27C49.277 27 49.7732 26.8674 50.1406 26.6023C50.5118 26.3333 50.6974 26.0114 50.6974 25.6364C50.6974 25.3333 50.5914 25.0795 50.3793 24.875C50.1671 24.6667 49.8414 24.5114 49.402 24.4091L47.9474 24.0682C47.1482 23.8788 46.5611 23.5852 46.1861 23.1875C45.8149 22.786 45.6293 22.2841 45.6293 21.6818C45.6293 21.1894 45.7675 20.7538 46.044 20.375C46.3243 19.9962 46.705 19.6989 47.1861 19.483C47.6709 19.267 48.2202 19.1591 48.8338 19.1591C49.6974 19.1591 50.3755 19.3485 50.8679 19.7273C51.3641 20.1061 51.7164 20.6061 51.9247 21.2273ZM58.6023 28V19.2727H59.9432V28H58.6023ZM59.2841 17.8182C59.0227 17.8182 58.7973 17.7292 58.608 17.5511C58.4223 17.3731 58.3295 17.1591 58.3295 16.9091C58.3295 16.6591 58.4223 16.4451 58.608 16.267C58.7973 16.089 59.0227 16 59.2841 16C59.5455 16 59.7689 16.089 59.9545 16.267C60.1439 16.4451 60.2386 16.6591 60.2386 16.9091C60.2386 17.1591 60.1439 17.3731 59.9545 17.5511C59.7689 17.7292 59.5455 17.8182 59.2841 17.8182ZM68.581 21.2273L67.3764 21.5682C67.3007 21.3674 67.1889 21.1723 67.0412 20.983C66.8973 20.7898 66.7003 20.6307 66.4503 20.5057C66.2003 20.3807 65.8802 20.3182 65.4901 20.3182C64.956 20.3182 64.5109 20.4413 64.1548 20.6875C63.8026 20.9299 63.6264 21.2386 63.6264 21.6136C63.6264 21.947 63.7476 22.2102 63.9901 22.4034C64.2325 22.5966 64.6113 22.7576 65.1264 22.8864L66.4219 23.2045C67.2022 23.3939 67.7836 23.6837 68.1662 24.0739C68.5488 24.4602 68.7401 24.9583 68.7401 25.5682C68.7401 26.0682 68.5961 26.5152 68.3082 26.9091C68.0241 27.303 67.6264 27.6136 67.1151 27.8409C66.6037 28.0682 66.009 28.1818 65.331 28.1818C64.4408 28.1818 63.7041 27.9886 63.1207 27.6023C62.5374 27.2159 62.1681 26.6515 62.0128 25.9091L63.2855 25.5909C63.4067 26.0606 63.6359 26.4129 63.973 26.6477C64.3139 26.8826 64.759 27 65.3082 27C65.9332 27 66.4295 26.8674 66.7969 26.6023C67.1681 26.3333 67.3537 26.0114 67.3537 25.6364C67.3537 25.3333 67.2476 25.0795 67.0355 24.875C66.8234 24.6667 66.4976 24.5114 66.0582 24.4091L64.6037 24.0682C63.8045 23.8788 63.2173 23.5852 62.8423 23.1875C62.4711 22.786 62.2855 22.2841 62.2855 21.6818C62.2855 21.1894 62.4238 20.7538 62.7003 20.375C62.9806 19.9962 63.3613 19.6989 63.8423 19.483C64.3272 19.267 64.8764 19.1591 65.4901 19.1591C66.3537 19.1591 67.0317 19.3485 67.5241 19.7273C68.0204 20.1061 68.3726 20.6061 68.581 21.2273ZM77.8267 28.2045C77.2737 28.2045 76.7718 28.1004 76.321 27.892C75.8703 27.6799 75.5123 27.375 75.2472 26.9773C74.982 26.5758 74.8494 26.0909 74.8494 25.5227C74.8494 25.0227 74.9479 24.6174 75.1449 24.3068C75.3419 23.9924 75.6051 23.7462 75.9347 23.5682C76.2642 23.3902 76.6278 23.2576 77.0256 23.1705C77.4271 23.0795 77.8305 23.0076 78.2358 22.9545C78.7661 22.8864 79.196 22.8352 79.5256 22.8011C79.8589 22.7633 80.1013 22.7008 80.2528 22.6136C80.4081 22.5265 80.4858 22.375 80.4858 22.1591V22.1136C80.4858 21.553 80.3324 21.1174 80.0256 20.8068C79.7225 20.4962 79.2623 20.3409 78.6449 20.3409C78.0047 20.3409 77.5028 20.4811 77.1392 20.7614C76.7756 21.0417 76.5199 21.3409 76.3722 21.6591L75.0994 21.2045C75.3267 20.6742 75.6297 20.2614 76.0085 19.9659C76.3911 19.6667 76.8078 19.4583 77.2585 19.3409C77.7131 19.2197 78.16 19.1591 78.5994 19.1591C78.8797 19.1591 79.2017 19.1932 79.5653 19.2614C79.9328 19.3258 80.2869 19.4602 80.6278 19.6648C80.9725 19.8693 81.2585 20.178 81.4858 20.5909C81.7131 21.0038 81.8267 21.5568 81.8267 22.25V28H80.4858V26.8182H80.4176C80.3267 27.0076 80.1752 27.2102 79.9631 27.4261C79.7509 27.642 79.4688 27.8258 79.1165 27.9773C78.7642 28.1288 78.3343 28.2045 77.8267 28.2045ZM78.0312 27C78.5616 27 79.0085 26.8958 79.3722 26.6875C79.7396 26.4792 80.0161 26.2102 80.2017 25.8807C80.3911 25.5511 80.4858 25.2045 80.4858 24.8409V23.6136C80.429 23.6818 80.304 23.7443 80.1108 23.8011C79.9214 23.8542 79.7017 23.9015 79.4517 23.9432C79.2055 23.9811 78.965 24.0152 78.7301 24.0455C78.4991 24.072 78.3116 24.0947 78.1676 24.1136C77.8191 24.1591 77.4934 24.233 77.1903 24.3352C76.8911 24.4337 76.6487 24.5833 76.4631 24.7841C76.2813 24.9811 76.1903 25.25 76.1903 25.5909C76.1903 26.0568 76.3627 26.4091 76.7074 26.6477C77.0559 26.8826 77.4972 27 78.0312 27ZM88.956 28V16.3636H90.2969V20.6591H90.4105C90.509 20.5076 90.6454 20.3144 90.8196 20.0795C90.9976 19.8409 91.2514 19.6288 91.581 19.4432C91.9143 19.2538 92.3651 19.1591 92.9332 19.1591C93.6681 19.1591 94.3158 19.3428 94.8764 19.7102C95.437 20.0777 95.8745 20.5985 96.1889 21.2727C96.5033 21.947 96.6605 22.7424 96.6605 23.6591C96.6605 24.5833 96.5033 25.3845 96.1889 26.0625C95.8745 26.7367 95.4389 27.2595 94.8821 27.6307C94.3253 27.9981 93.6832 28.1818 92.956 28.1818C92.3954 28.1818 91.9465 28.089 91.6094 27.9034C91.2723 27.714 91.0128 27.5 90.831 27.2614C90.6491 27.0189 90.509 26.8182 90.4105 26.6591H90.2514V28H88.956ZM90.2741 23.6364C90.2741 24.2955 90.3707 24.8769 90.5639 25.3807C90.7571 25.8807 91.0393 26.2727 91.4105 26.5568C91.7817 26.8371 92.2363 26.9773 92.7741 26.9773C93.3348 26.9773 93.8026 26.8295 94.1776 26.5341C94.5563 26.2348 94.8404 25.8333 95.0298 25.3295C95.223 24.822 95.3196 24.2576 95.3196 23.6364C95.3196 23.0227 95.2249 22.4697 95.0355 21.9773C94.8499 21.4811 94.5677 21.089 94.1889 20.8011C93.8139 20.5095 93.3423 20.3636 92.7741 20.3636C92.2287 20.3636 91.7704 20.5019 91.3991 20.7784C91.0279 21.0511 90.7476 21.4337 90.5582 21.9261C90.3688 22.4148 90.2741 22.9848 90.2741 23.6364ZM104.212 24.4318V19.2727H105.553V28H104.212V26.5227H104.121C103.916 26.9659 103.598 27.3428 103.166 27.6534C102.734 27.9602 102.189 28.1136 101.53 28.1136C100.984 28.1136 100.5 27.9943 100.075 27.7557C99.651 27.5133 99.3177 27.1496 99.0753 26.6648C98.8329 26.1761 98.7116 25.5606 98.7116 24.8182V19.2727H100.053V24.7273C100.053 25.3636 100.231 25.8712 100.587 26.25C100.946 26.6288 101.405 26.8182 101.962 26.8182C102.295 26.8182 102.634 26.733 102.979 26.5625C103.327 26.392 103.619 26.1307 103.854 25.7784C104.092 25.4261 104.212 24.9773 104.212 24.4318ZM111.804 19.2727V20.4091H107.281V19.2727H111.804ZM108.599 17.1818H109.94V25.5C109.94 25.8788 109.995 26.1629 110.105 26.3523C110.219 26.5379 110.363 26.6629 110.537 26.7273C110.715 26.7879 110.902 26.8182 111.099 26.8182C111.247 26.8182 111.368 26.8106 111.463 26.7955C111.558 26.7765 111.634 26.7614 111.69 26.75L111.963 27.9545C111.872 27.9886 111.745 28.0227 111.582 28.0568C111.42 28.0947 111.213 28.1136 110.963 28.1136C110.584 28.1136 110.213 28.0322 109.849 27.8693C109.49 27.7064 109.19 27.4583 108.952 27.125C108.717 26.7917 108.599 26.3712 108.599 25.8636V17.1818ZM117.616 19.2727V20.4091H113.094V19.2727H117.616ZM114.412 17.1818H115.753V25.5C115.753 25.8788 115.808 26.1629 115.918 26.3523C116.031 26.5379 116.175 26.6629 116.349 26.7273C116.527 26.7879 116.715 26.8182 116.912 26.8182C117.06 26.8182 117.181 26.8106 117.276 26.7955C117.37 26.7765 117.446 26.7614 117.503 26.75L117.776 27.9545C117.685 27.9886 117.558 28.0227 117.395 28.0568C117.232 28.0947 117.026 28.1136 116.776 28.1136C116.397 28.1136 116.026 28.0322 115.662 27.8693C115.302 27.7064 115.003 27.4583 114.764 27.125C114.529 26.7917 114.412 26.3712 114.412 25.8636V17.1818ZM123.085 28.1818C122.297 28.1818 121.606 27.9943 121.011 27.6193C120.42 27.2443 119.958 26.7197 119.625 26.0455C119.295 25.3712 119.131 24.5833 119.131 23.6818C119.131 22.7727 119.295 21.9792 119.625 21.3011C119.958 20.6231 120.42 20.0966 121.011 19.7216C121.606 19.3466 122.297 19.1591 123.085 19.1591C123.873 19.1591 124.563 19.3466 125.153 19.7216C125.748 20.0966 126.21 20.6231 126.54 21.3011C126.873 21.9792 127.04 22.7727 127.04 23.6818C127.04 24.5833 126.873 25.3712 126.54 26.0455C126.21 26.7197 125.748 27.2443 125.153 27.6193C124.563 27.9943 123.873 28.1818 123.085 28.1818ZM123.085 26.9773C123.684 26.9773 124.176 26.8239 124.562 26.517C124.949 26.2102 125.235 25.8068 125.42 25.3068C125.606 24.8068 125.699 24.2652 125.699 23.6818C125.699 23.0985 125.606 22.5549 125.42 22.0511C125.235 21.5473 124.949 21.1402 124.562 20.8295C124.176 20.5189 123.684 20.3636 123.085 20.3636C122.487 20.3636 121.994 20.5189 121.608 20.8295C121.222 21.1402 120.936 21.5473 120.75 22.0511C120.564 22.5549 120.472 23.0985 120.472 23.6818C120.472 24.2652 120.564 24.8068 120.75 25.3068C120.936 25.8068 121.222 26.2102 121.608 26.517C121.994 26.8239 122.487 26.9773 123.085 26.9773ZM130.428 22.75V28H129.087V19.2727H130.382V20.6364H130.496C130.7 20.1932 131.011 19.8371 131.428 19.5682C131.844 19.2955 132.382 19.1591 133.041 19.1591C133.632 19.1591 134.149 19.2803 134.592 19.5227C135.036 19.7614 135.38 20.125 135.626 20.6136C135.873 21.0985 135.996 21.7121 135.996 22.4545V28H134.655V22.5455C134.655 21.8598 134.477 21.3258 134.121 20.9432C133.765 20.5568 133.276 20.3636 132.655 20.3636C132.227 20.3636 131.844 20.4564 131.507 20.642C131.174 20.8277 130.911 21.0985 130.717 21.4545C130.524 21.8106 130.428 22.2424 130.428 22.75Z" fill="white"/>
</g>
<defs>
<filter id="filter0_d_180_634" x="0" y="0" width="159" height="52" filterUnits="userSpaceOnUse" color-interpolation-filters="sRGB">
<feFlood flood-opacity="0" result="BackgroundImageFix"/>
<feColorMatrix in="SourceAlpha" type="matrix" values="0 0 0 0 0 0 0 0 0 0 0 0 0 0 0 0 0 0 127 0" result="hardAlpha"/>
<feOffset dy="4"/>
<feGaussianBlur stdDeviation="2"/>
<feComposite in2="hardAlpha" operator="out"/>
<feColorMatrix type="matrix" values="0 0 0 0 0 0 0 0 0 0 0 0 0 0 0 0 0 0 0.1 0"/>
<feBlend mode="normal" in2="BackgroundImageFix" result="effect1_dropShadow_180_634"/>
<feBlend mode="normal" in="SourceGraphic" in2="effect1_dropShadow_180_634" result="shape"/>
</filter>
</defs>
</svg>
