<svg width="158" height="153" viewBox="0 0 158 153" fill="none" xmlns="http://www.w3.org/2000/svg">
<path d="M79 150.264C120.727 150.264 154.71 117.527 154.71 76.9554C154.71 36.3834 120.727 3.64677 79 3.64677C37.2728 3.64677 3.29032 36.3834 3.29032 76.9554C3.29032 117.527 37.2728 150.264 79 150.264Z" stroke="#1C7CA5" stroke-width="5.41935" stroke-linecap="round"/>
<path d="M111.49 92.1074C114.926 90.3476 116.989 87.9486 117.682 84.9106C118.374 81.8725 118.176 79.0856 117.087 76.5499" stroke="#14173B" stroke-width="4.60194" stroke-linecap="round"/>
<path d="M57.7127 92.7979C61.1481 91.038 63.2121 88.6389 63.9044 85.6009C64.5968 82.5628 64.3985 79.776 63.3095 77.2403" stroke="#14173B" stroke-width="4.60194" stroke-linecap="round"/>
<path d="M107.65 64.9487C117.867 64.9487 126.148 72.8006 126.148 82.4864C126.148 92.1721 117.867 100.024 107.65 100.024C97.4343 100.024 89.1524 92.1721 89.1524 82.4864C89.1524 72.8006 97.4343 64.9487 107.65 64.9487Z" stroke="#14173B" stroke-width="4.58755"/>
<path d="M52.5173 64.9487C62.7335 64.9487 71.0154 72.8006 71.0154 82.4864C71.0154 92.1721 62.7335 100.024 52.5173 100.024C42.3012 100.024 34.0193 92.1721 34.0193 82.4864C34.0193 72.8006 42.3012 64.9487 52.5173 64.9487Z" stroke="#14173B" stroke-width="4.58755"/>
<path d="M107.708 83.7504L99.8315 54.0102L98.1051 47.4925C102.907 47.3228 105.728 47.3228 106.568 47.4925C107.829 47.7468 108.798 48.6363 109.02 49.6958C109.243 50.7553 108.822 51.6875 107.708 52.9121C106.966 53.7286 106.162 54.0214 105.296 53.7908" stroke="#1C7CA5" stroke-width="4.58755" stroke-linecap="round"/>
<path d="M99.8314 54.0104C100.42 53.2614 90.5603 55.2896 70.2521 60.0951C57.4357 75.0024 51.5498 82.4562 52.5944 82.4562H79.0942C92.3304 64.2413 99.2427 54.7594 99.8314 54.0104Z" stroke="#1C7CA5" stroke-width="4.58755"/>
<path d="M79.0943 82.4565L64.0333 48.271" stroke="#1C7CA5" stroke-width="4.58755"/>
<path d="M68.1196 47.3652H58.565" stroke="#10163A" stroke-width="4.58755" stroke-linecap="round"/>
</svg>
