<svg width="46" height="55" viewBox="0 0 46 55" fill="none" xmlns="http://www.w3.org/2000/svg">
<path d="M33.5439 27.5203C36.5815 27.5203 39.0439 25.0969 39.0439 22.1075C39.0439 19.118 36.5815 16.6946 33.5439 16.6946C30.5064 16.6946 28.0439 19.118 28.0439 22.1075C28.0439 25.0969 30.5064 27.5203 33.5439 27.5203Z" stroke="#1C7CA5" stroke-width="2" stroke-linecap="round" stroke-linejoin="round"/>
<path d="M13.1333 27.5203C16.1709 27.5203 18.6333 25.0969 18.6333 22.1075C18.6333 19.118 16.1709 16.6946 13.1333 16.6946C10.0957 16.6946 7.6333 19.118 7.6333 22.1075C7.6333 25.0969 10.0957 27.5203 13.1333 27.5203Z" stroke="#1C7CA5" stroke-width="2" stroke-linecap="round" stroke-linejoin="round"/>
<path d="M30.3795 12.6689L22.9172 22.1075H13.1333L20.6233 12.6689H30.3795" stroke="#1C7CA5" stroke-width="2" stroke-linecap="round" stroke-linejoin="round"/>
<path d="M19.9046 9.67696L22.9172 22.1076M17.9561 9.67696H22.0189M3.76392 32.6749H42.8443M33.5441 22.1076L29.2049 9.16016H26.0127L33.5441 22.1076Z" stroke="#1C7CA5" stroke-width="2" stroke-linecap="round" stroke-linejoin="round"/>
<path d="M23 1C17.1664 1.0036 11.5727 3.2859 7.44769 7.34556C3.32269 11.4052 1.00366 16.9103 1 22.6515C1 31.1109 6.43091 38.8358 11.7789 44.4119C15.0201 47.8265 18.5984 50.9154 22.4611 53.6328L23 54L23.5389 53.6328C27.4016 50.9154 30.9799 47.8265 34.2211 44.4119C39.5691 38.7814 45 31.0701 45 22.6515C44.9963 16.9103 42.6773 11.4052 38.5523 7.34556C34.4273 3.2859 28.8336 1.0036 23 1Z" stroke="#1C7CA5" stroke-width="2" stroke-linecap="round" stroke-linejoin="round"/>
</svg>
