<svg width="98" height="61" viewBox="0 0 98 61" fill="none" xmlns="http://www.w3.org/2000/svg">
<path d="M80.5157 49.885C83.956 48.0649 86.0108 45.5622 86.6802 42.377C87.3497 39.1917 87.1254 36.263 86.0072 33.5906" stroke="#14173B" stroke-width="4.60194" stroke-linecap="round"/>
<path d="M26.7382 50.6086C30.1785 48.7886 32.2334 46.2858 32.9028 43.1006C33.5722 39.9153 33.3479 36.9866 32.2298 34.3142" stroke="#14173B" stroke-width="4.60194" stroke-linecap="round"/>
<path d="M76.631 21.4307C86.8472 21.4307 95.129 29.6608 95.129 39.8132C95.129 49.9655 86.8472 58.1957 76.631 58.1957C66.4149 58.1957 58.133 49.9655 58.133 39.8132C58.133 29.6608 66.4149 21.4307 76.631 21.4307Z" stroke="#14173B" stroke-width="4.58755"/>
<path d="M21.498 21.4307C31.7141 21.4307 39.996 29.6608 39.996 39.8132C39.996 49.9655 31.7141 58.1957 21.498 58.1957C11.2819 58.1957 3 49.9655 3 39.8132C3 29.6608 11.2819 21.4307 21.498 21.4307Z" stroke="#14173B" stroke-width="4.58755"/>
<path d="M76.689 41.138L68.8121 9.96511L67.0858 3.13336C71.8878 2.95555 74.7089 2.95555 75.549 3.13336C76.8093 3.39995 77.7783 4.33235 78.001 5.44283C78.2239 6.55341 77.8028 7.53046 76.689 8.81409C75.9464 9.66991 75.1422 9.97686 74.2765 9.7351" stroke="#1C7CA5" stroke-width="4.58755" stroke-linecap="round"/>
<path d="M68.8121 9.96543C69.4008 9.18037 59.541 11.3063 39.2328 16.3433C26.4164 31.9688 20.5304 39.7816 21.5751 39.7816H48.0748C61.311 20.6892 68.2234 10.7505 68.8121 9.96543Z" stroke="#1C7CA5" stroke-width="4.58755"/>
<path d="M48.0749 39.7816L33.0139 3.94922" stroke="#1C7CA5" stroke-width="4.58755"/>
<path d="M37.1003 3H27.5457" stroke="#10163A" stroke-width="4.58755" stroke-linecap="round"/>
</svg>
