<svg width="94" height="80" viewBox="0 0 94 80" fill="none" xmlns="http://www.w3.org/2000/svg">
<path d="M79.7244 68.6036C82.6144 67.0747 84.3405 64.9724 84.9028 62.2967C85.4652 59.621 85.2768 57.1607 84.3375 54.9158" stroke="#14173B" stroke-width="3.86578" stroke-linecap="round"/>
<path d="M34.5495 69.212C37.4395 67.6831 39.1656 65.5807 39.7279 62.905C40.2903 60.2293 40.1019 57.7691 39.1626 55.5242" stroke="#14173B" stroke-width="3.86578" stroke-linecap="round"/>
<path d="M76.4611 44.6997C85.043 44.6997 92 51.6133 92 60.1416C92 68.6699 85.043 75.5835 76.4611 75.5835C67.8792 75.5835 60.9222 68.6699 60.9222 60.1416C60.9222 51.6133 67.8792 44.6997 76.4611 44.6997Z" stroke="#14173B" stroke-width="3.85369"/>
<path d="M30.1476 44.6997C38.7295 44.6997 45.6865 51.6133 45.6865 60.1416C45.6865 68.6699 38.7295 75.5835 30.1476 75.5835C21.5657 75.5835 14.6087 68.6699 14.6087 60.1416C14.6087 51.6133 21.5657 44.6997 30.1476 44.6997Z" stroke="#14173B" stroke-width="3.85369"/>
<path d="M76.5098 61.2544L69.893 35.0682L68.4428 29.3293C72.4767 29.1799 74.8465 29.1799 75.5522 29.3293C76.6109 29.5533 77.4249 30.3365 77.612 31.2693C77.7992 32.2023 77.4455 33.023 76.5098 34.1013C75.886 34.8202 75.2105 35.0781 74.4832 34.875" stroke="#1C7CA5" stroke-width="3.85369" stroke-linecap="round"/>
<path d="M69.893 35.066C70.3875 34.4065 62.105 36.1924 45.0454 40.4236C34.2792 53.5495 29.3348 60.1125 30.2124 60.1125H52.473C63.5918 44.0744 69.3985 35.7255 69.893 35.066Z" stroke="#1C7CA5" stroke-width="3.85369"/>
<path d="M52.4731 60.1169L39.8214 30.0166" stroke="#1C7CA5" stroke-width="3.85369"/>
<path d="M43.254 29.2173H35.2278" stroke="#10163A" stroke-width="3.85369" stroke-linecap="round"/>
<path d="M9.49279 18.7297L38.7017 9.18066V79.2071H9.49279V18.7297Z" fill="#2A92BF"/>
<line y1="-3.18302" x2="49.2866" y2="-3.18302" transform="matrix(0.921874 -0.387491 0.400415 0.916334 3 25.0981)" stroke="black" stroke-width="6.36604"/>
</svg>
