<svg width="23" height="21" viewBox="0 0 23 21" fill="none" xmlns="http://www.w3.org/2000/svg">
<path d="M9.03729 8.90608H7.77117H7.35988V9.31737V11.6165V12.1498L7.87569 12.0143L16.1059 9.8517L16.5075 9.74617L16.3982 9.34559L15.9117 7.56388L15.829 7.26092H15.5149H13.2147V6.63659V6.43834H16.1398V6.43844L16.1487 6.43825C16.2464 6.43613 16.3412 6.46633 16.4178 6.52268C16.4943 6.57893 16.5478 6.65756 16.5717 6.74495L16.5717 6.74498L17.7726 11.1406L17.5436 11.2194L16.945 11.3465L16.8326 10.9348L16.7253 10.5418L16.3313 10.6453L7.29868 13.019H6.50504V9.31737V8.90608H6.09376H4.82763V8.49459V8.08332L9.03729 8.08348V8.49459V8.90608ZM6.93246 19.5996C7.48387 19.5996 8.01427 19.3848 8.40656 19.0001C8.52597 18.883 8.58012 18.7293 8.60901 18.6224C8.64129 18.503 8.66041 18.3689 8.67222 18.2349C8.69596 17.9658 8.6944 17.6453 8.68355 17.3356C8.67383 17.0582 8.6562 16.7788 8.63989 16.5378C8.64568 16.5237 8.64994 16.5117 8.65292 16.5028C8.6827 16.4129 8.68927 16.3213 8.69076 16.2574C8.6924 16.1869 8.68825 16.115 8.68177 16.05C8.66985 15.9307 8.64517 15.7881 8.60987 15.6914L8.60932 15.6899C8.60292 15.6723 8.57851 15.605 8.52593 15.5423C8.50514 15.5176 8.41229 15.4094 8.24411 15.3934C8.03186 15.3733 7.90494 15.5092 7.86073 15.5739C7.83474 15.6119 7.8188 15.6488 7.80912 15.6766C7.53659 15.5525 7.23775 15.4867 6.93246 15.4867C6.38105 15.4867 5.85066 15.7015 5.45836 16.0862C5.0658 16.4712 4.84376 16.9951 4.84376 17.5431C4.84376 18.0911 5.0658 18.6151 5.45836 19.0001C5.85066 19.3848 6.38105 19.5996 6.93246 19.5996ZM8.40656 16.0862C8.4064 16.0861 8.40625 16.0859 8.40609 16.0857L8.40656 16.0862ZM6.93246 20.4222C6.14924 20.4222 5.39966 20.1169 4.84823 19.5761C4.29707 19.0355 3.98893 18.3041 3.98893 17.5431C3.98893 16.7822 4.29707 16.0507 4.84823 15.5102C5.39966 14.9693 6.14924 14.6641 6.93246 14.6641C7.71569 14.6641 8.46526 14.9693 9.01669 15.5102C9.56786 16.0507 9.876 16.7822 9.876 17.5431C9.876 18.3041 9.56786 19.0355 9.01669 19.5761C8.46526 20.1169 7.71569 20.4222 6.93246 20.4222ZM17.8356 19.5996C18.6095 19.5996 19.3532 19.2982 19.9028 18.7591C20.4526 18.2199 20.7631 17.4867 20.7631 16.7206C20.7631 15.9544 20.4526 15.2213 19.9028 14.682C19.3532 14.143 18.6095 13.8415 17.8356 13.8415C17.0618 13.8415 16.3181 14.143 15.7685 14.682C15.2186 15.2213 14.9082 15.9544 14.9082 16.7206C14.9082 17.4867 15.2186 18.2199 15.7685 18.7591C16.3181 19.2982 17.0618 19.5996 17.8356 19.5996ZM17.8356 20.4222C16.83 20.4222 15.8671 20.0303 15.1584 19.3352C14.4499 18.6404 14.0534 17.6997 14.0534 16.7206C14.0534 15.7414 14.4499 14.8008 15.1584 14.1059C15.8671 13.4109 16.83 13.019 17.8356 13.019C18.8413 13.019 19.8042 13.4109 20.5129 14.1059C21.2214 14.8008 21.6179 15.7414 21.6179 16.7206C21.6179 17.6997 21.2214 18.6404 20.5129 19.3352C19.8042 20.0303 18.8413 20.4222 17.8356 20.4222Z" fill="#2A92BF" stroke="black" stroke-width="0.822577" stroke-linecap="round"/>
<path d="M2.73975 5.20406L10.2881 2.73633V20.833H2.73975V5.20406Z" fill="#2A92BF"/>
<line y1="-0.822577" x2="12.737" y2="-0.822577" transform="matrix(0.921874 -0.387491 0.400415 0.916334 1.06177 6.84961)" stroke="black" stroke-width="1.64515"/>
</svg>
