<svg width="19" height="17" viewBox="0 0 19 17" fill="none" xmlns="http://www.w3.org/2000/svg">
<rect width="19" height="17" rx="5" fill="#2A92BF"/>
<path d="M9.17472 12.0994C8.70123 12.0994 8.27746 12.0107 7.90341 11.8331C7.52936 11.6532 7.23224 11.407 7.01207 11.0945C6.79427 10.782 6.67827 10.4245 6.66406 10.022H7.94247C7.96615 10.3203 8.09517 10.5642 8.32955 10.7536C8.56392 10.9406 8.84564 11.0341 9.17472 11.0341C9.43277 11.0341 9.66241 10.9749 9.86364 10.8565C10.0649 10.7382 10.2235 10.5736 10.3395 10.3629C10.4555 10.1522 10.5123 9.91193 10.5099 9.64205C10.5123 9.36742 10.4543 9.12358 10.3359 8.91051C10.2176 8.69744 10.0554 8.53054 9.84943 8.4098C9.64347 8.28669 9.40672 8.22514 9.1392 8.22514C8.9214 8.22277 8.70715 8.26302 8.49645 8.34588C8.28575 8.42874 8.11884 8.53764 7.99574 8.67259L6.80611 8.47727L7.18608 4.72727H11.4048V5.82812H8.27628L8.06676 7.75639H8.10938C8.24432 7.59777 8.4349 7.46638 8.68111 7.36222C8.92732 7.25568 9.19721 7.20241 9.49077 7.20241C9.93111 7.20241 10.3241 7.30658 10.6697 7.51491C11.0154 7.72088 11.2876 8.00497 11.4865 8.36719C11.6854 8.7294 11.7848 9.1437 11.7848 9.61009C11.7848 10.0907 11.6735 10.5192 11.451 10.8956C11.2308 11.2696 10.9242 11.5644 10.5312 11.7798C10.1406 11.9929 9.68845 12.0994 9.17472 12.0994Z" fill="white"/>
</svg>
