<svg width="42" height="40" viewBox="0 0 42 40" fill="none" xmlns="http://www.w3.org/2000/svg">
<path d="M28.775 19.6875C28.775 24.7064 24.7064 28.775 19.6875 28.775C14.6686 28.775 10.6 24.7064 10.6 19.6875C10.6 14.6686 14.6686 10.6 19.6875 10.6C24.7064 10.6 28.775 14.6686 28.775 19.6875Z" fill="#FDC100" stroke="black" stroke-width="0.2"/>
<mask id="path-2-inside-1_180_586" fill="white">
<path d="M23.3625 8.99063L19.6875 0L16.0125 8.99063C17.1938 8.79375 18.4406 8.6625 19.6875 8.6625C20.9344 8.6625 22.1813 8.79375 23.3625 8.99063ZM16.0125 30.3844L19.6875 39.375L23.3625 30.3844C22.1813 30.5813 20.9344 30.7125 19.6875 30.7125C18.4406 30.7125 17.1938 30.5813 16.0125 30.3844ZM30.3844 23.3625L39.375 19.6875L30.3844 16.0125C30.5813 17.1938 30.7125 18.4406 30.7125 19.6875C30.7125 20.9344 30.5813 22.1813 30.3844 23.3625V23.3625ZM8.99063 16.0125L0 19.6875L8.99063 23.3625C8.79375 22.1813 8.6625 20.9344 8.6625 19.6875C8.6625 18.4406 8.79375 17.1938 8.99063 16.0125ZM29.8594 14.7L33.6 5.775L24.675 9.51563C25.6594 10.2375 26.6438 10.9594 27.4969 11.8781C28.4156 12.7969 29.1375 13.7156 29.8594 14.7V14.7ZM9.51563 24.675L5.775 33.6L14.7 29.8594C13.7156 29.1375 12.7313 28.4156 11.8781 27.4969C10.9594 26.5781 10.2375 25.6594 9.51563 24.675V24.675ZM24.675 29.8594L33.6 33.6L29.8594 24.675C29.1375 25.6594 28.4156 26.6438 27.4969 27.4969C26.5781 28.4156 25.6594 29.1375 24.675 29.8594ZM14.7 9.51563L5.775 5.775L9.51563 14.7C10.2375 13.7156 10.9594 12.7313 11.8781 11.8781C12.7969 10.9594 13.7156 10.2375 14.7 9.51563"/>
</mask>
<path d="M23.3625 8.99063L19.6875 0L16.0125 8.99063C17.1938 8.79375 18.4406 8.6625 19.6875 8.6625C20.9344 8.6625 22.1813 8.79375 23.3625 8.99063ZM16.0125 30.3844L19.6875 39.375L23.3625 30.3844C22.1813 30.5813 20.9344 30.7125 19.6875 30.7125C18.4406 30.7125 17.1938 30.5813 16.0125 30.3844ZM30.3844 23.3625L39.375 19.6875L30.3844 16.0125C30.5813 17.1938 30.7125 18.4406 30.7125 19.6875C30.7125 20.9344 30.5813 22.1813 30.3844 23.3625V23.3625ZM8.99063 16.0125L0 19.6875L8.99063 23.3625C8.79375 22.1813 8.6625 20.9344 8.6625 19.6875C8.6625 18.4406 8.79375 17.1938 8.99063 16.0125ZM29.8594 14.7L33.6 5.775L24.675 9.51563C25.6594 10.2375 26.6438 10.9594 27.4969 11.8781C28.4156 12.7969 29.1375 13.7156 29.8594 14.7V14.7ZM9.51563 24.675L5.775 33.6L14.7 29.8594C13.7156 29.1375 12.7313 28.4156 11.8781 27.4969C10.9594 26.5781 10.2375 25.6594 9.51563 24.675V24.675ZM24.675 29.8594L33.6 33.6L29.8594 24.675C29.1375 25.6594 28.4156 26.6438 27.4969 27.4969C26.5781 28.4156 25.6594 29.1375 24.675 29.8594ZM14.7 9.51563L5.775 5.775L9.51563 14.7C10.2375 13.7156 10.9594 12.7313 11.8781 11.8781C12.7969 10.9594 13.7156 10.2375 14.7 9.51563" fill="#FDC100"/>
<path d="M23.3625 8.99063L23.3296 9.1879L23.6833 9.24685L23.5476 8.91495L23.3625 8.99063ZM19.6875 0L19.8726 -0.0756739L19.6875 -0.528584L19.5024 -0.075674L19.6875 0ZM16.0125 8.99063L15.8274 8.91495L15.6917 9.24685L16.0454 9.1879L16.0125 8.99063ZM16.0125 30.3844L16.0454 30.1871L15.6917 30.1282L15.8274 30.4601L16.0125 30.3844ZM19.6875 39.375L19.5024 39.4507L19.6875 39.9036L19.8726 39.4507L19.6875 39.375ZM23.3625 30.3844L23.5476 30.4601L23.6833 30.1282L23.3296 30.1871L23.3625 30.3844ZM39.375 19.6875L39.4507 19.8726L39.9036 19.6875L39.4507 19.5024L39.375 19.6875ZM30.3844 16.0125L30.4601 15.8274L30.1282 15.6917L30.1871 16.0454L30.3844 16.0125ZM8.99063 16.0125L9.1879 16.0454L9.24685 15.6917L8.91495 15.8274L8.99063 16.0125ZM0 19.6875L-0.075674 19.5024L-0.528584 19.6875L-0.0756739 19.8726L0 19.6875ZM8.99063 23.3625L8.91495 23.5476L9.24685 23.6833L9.1879 23.3296L8.99063 23.3625ZM33.6 5.775L33.7845 5.85231L33.9733 5.40168L33.5227 5.59055L33.6 5.775ZM24.675 9.51563L24.5977 9.33117L24.2716 9.46783L24.5567 9.67691L24.675 9.51563ZM27.4969 11.8781L27.3502 12.0143L27.3555 12.0195L27.4969 11.8781ZM5.775 33.6L5.59055 33.5227L5.40168 33.9733L5.85231 33.7845L5.775 33.6ZM14.7 29.8594L14.7773 30.0438L15.1034 29.9072L14.8183 29.6981L14.7 29.8594ZM11.8781 27.4969L12.0248 27.3607L12.0195 27.3555L11.8781 27.4969ZM24.675 29.8594L24.5567 29.6981L24.2716 29.9072L24.5977 30.0438L24.675 29.8594ZM33.6 33.6L33.5227 33.7845L33.9733 33.9733L33.7845 33.5227L33.6 33.6ZM29.8594 24.675L30.0438 24.5977L29.9072 24.2716L29.6981 24.5567L29.8594 24.675ZM27.4969 27.4969L27.3607 27.3502L27.3555 27.3555L27.4969 27.4969ZM5.775 5.775L5.85231 5.59055L5.40168 5.40168L5.59055 5.85231L5.775 5.775ZM9.51563 14.7L9.33117 14.7773L9.46783 15.1034L9.67691 14.8183L9.51563 14.7ZM11.8781 11.8781L12.0143 12.0248L12.0195 12.0195L11.8781 11.8781ZM23.5476 8.91495L19.8726 -0.0756739L19.5024 0.0756739L23.1774 9.0663L23.5476 8.91495ZM19.5024 -0.075674L15.8274 8.91495L16.1976 9.0663L19.8726 0.075674L19.5024 -0.075674ZM16.0454 9.1879C17.2187 8.99235 18.4543 8.8625 19.6875 8.8625V8.4625C18.427 8.4625 17.1688 8.59515 15.9796 8.79335L16.0454 9.1879ZM19.6875 8.8625C20.9207 8.8625 22.1563 8.99235 23.3296 9.1879L23.3954 8.79335C22.2062 8.59515 20.948 8.4625 19.6875 8.4625V8.8625ZM15.8274 30.4601L19.5024 39.4507L19.8726 39.2993L16.1976 30.3087L15.8274 30.4601ZM19.8726 39.4507L23.5476 30.4601L23.1774 30.3087L19.5024 39.2993L19.8726 39.4507ZM23.3296 30.1871C22.1563 30.3827 20.9207 30.5125 19.6875 30.5125V30.9125C20.948 30.9125 22.2062 30.7799 23.3954 30.5817L23.3296 30.1871ZM19.6875 30.5125C18.4543 30.5125 17.2187 30.3827 16.0454 30.1871L15.9796 30.5817C17.1688 30.7799 18.427 30.9125 19.6875 30.9125V30.5125ZM30.4601 23.5476L39.4507 19.8726L39.2993 19.5024L30.3087 23.1774L30.4601 23.5476ZM39.4507 19.5024L30.4601 15.8274L30.3087 16.1976L39.2993 19.8726L39.4507 19.5024ZM30.1871 16.0454C30.3827 17.2187 30.5125 18.4543 30.5125 19.6875H30.9125C30.9125 18.427 30.7799 17.1688 30.5817 15.9796L30.1871 16.0454ZM30.5125 19.6875C30.5125 20.9207 30.3827 22.1563 30.1871 23.3296L30.5817 23.3954C30.7799 22.2062 30.9125 20.948 30.9125 19.6875H30.5125ZM8.91495 15.8274L-0.075674 19.5024L0.075674 19.8726L9.0663 16.1976L8.91495 15.8274ZM-0.0756739 19.8726L8.91495 23.5476L9.0663 23.1774L0.0756739 19.5024L-0.0756739 19.8726ZM9.1879 23.3296C8.99235 22.1563 8.8625 20.9207 8.8625 19.6875H8.4625C8.4625 20.948 8.59515 22.2062 8.79335 23.3954L9.1879 23.3296ZM8.8625 19.6875C8.8625 18.4543 8.99235 17.2187 9.1879 16.0454L8.79335 15.9796C8.59515 17.1688 8.4625 18.427 8.4625 19.6875H8.8625ZM30.0438 14.7773L33.7845 5.85231L33.4155 5.69769L29.6749 14.6227L30.0438 14.7773ZM33.5227 5.59055L24.5977 9.33117L24.7523 9.70008L33.6773 5.95946L33.5227 5.59055ZM24.5567 9.67691C25.5434 10.4005 26.5122 11.1116 27.3503 12.0142L27.6434 11.742C26.7753 10.8071 25.7753 10.0745 24.7933 9.35434L24.5567 9.67691ZM27.3555 12.0195C28.2638 12.9279 28.9788 13.8374 29.6981 14.8183L30.0207 14.5817C29.2962 13.5939 28.5675 12.6659 27.6383 11.7367L27.3555 12.0195ZM9.33117 24.5977L5.59055 33.5227L5.95946 33.6773L9.70008 24.7523L9.33117 24.5977ZM5.85231 33.7845L14.7773 30.0438L14.6227 29.6749L5.69769 33.4155L5.85231 33.7845ZM14.8183 29.6981C13.8316 28.9745 12.8628 28.2634 12.0247 27.3608L11.7316 27.633C12.5997 28.5679 13.5997 29.3005 14.5817 30.0207L14.8183 29.6981ZM12.0195 27.3555C11.1112 26.4471 10.3962 25.5376 9.67691 24.5567L9.35434 24.7933C10.0788 25.7811 10.8075 26.7091 11.7367 27.6383L12.0195 27.3555ZM24.5977 30.0438L33.5227 33.7845L33.6773 33.4155L24.7523 29.6749L24.5977 30.0438ZM33.7845 33.5227L30.0438 24.5977L29.6749 24.7523L33.4155 33.6773L33.7845 33.5227ZM29.6981 24.5567C28.9745 25.5434 28.2634 26.5122 27.3608 27.3503L27.633 27.6434C28.5679 26.7753 29.3005 25.7753 30.0207 24.7933L29.6981 24.5567ZM27.3555 27.3555C26.4471 28.2638 25.5376 28.9788 24.5567 29.6981L24.7933 30.0207C25.7811 29.2962 26.7091 28.5675 27.6383 27.6383L27.3555 27.3555ZM14.7773 9.33117L5.85231 5.59055L5.69769 5.95946L14.6227 9.70008L14.7773 9.33117ZM5.59055 5.85231L9.33117 14.7773L9.70008 14.6227L5.95946 5.69769L5.59055 5.85231ZM9.67691 14.8183C10.4005 13.8316 11.1116 12.8628 12.0142 12.0247L11.742 11.7316C10.8071 12.5997 10.0745 13.5997 9.35434 14.5817L9.67691 14.8183ZM12.0195 12.0195C12.9279 11.1112 13.8374 10.3962 14.8183 9.67691L14.5817 9.35434C13.5939 10.0788 12.6659 10.8075 11.7367 11.7367L12.0195 12.0195Z" fill="black" mask="url(#path-2-inside-1_180_586)"/>
<path d="M20.8031 34.7156C20.3438 34.7156 19.8844 34.65 19.425 34.5188C17.6531 33.9281 16.4062 32.2219 16.4062 30.2531C16.4062 28.9406 16.9313 27.7594 17.9156 26.9063L18.7031 26.3156L18.9656 25.2656C19.6875 22.7063 22.05 20.8688 24.675 20.8688C24.9375 20.8688 25.2 20.8688 25.5281 20.9344C25.7906 21 25.9875 21 26.25 21.0656L26.3813 20.8688C27.4313 18.9 29.4656 17.7188 31.6313 17.7188C34.9125 17.7188 37.6031 20.475 37.6031 23.8219V24.4125C37.8656 24.5438 38.1281 24.6094 38.325 24.8063C39.9 25.725 40.95 27.4969 40.95 29.4C40.95 31.8938 39.3094 33.9938 36.9469 34.5188C36.5531 34.5844 36.1594 34.65 35.7656 34.65L20.8031 34.7156" fill="#FBFBFB"/>
<path d="M31.8281 18.8344C34.65 18.8344 36.9469 21.1969 36.9469 24.0844V24.4781C35.7656 24.5437 34.7156 25.0687 33.8625 25.7906C34.5188 25.3969 35.2406 25.2 36.0281 25.2C36.2906 25.2 36.6188 25.2 36.8813 25.2656C37.3406 25.3313 37.8 25.5281 38.1938 25.7906C39.5063 26.5781 40.3594 27.9563 40.3594 29.5969C40.3594 31.6969 38.9156 33.4031 37.0125 33.8625C36.6844 33.9281 36.3563 33.9938 36.0281 33.9938H21C20.6063 33.9938 20.2781 33.9281 19.8844 33.7969C18.5063 33.3375 17.4563 31.9594 17.4563 30.3844C17.4563 29.3344 17.9156 28.35 18.6375 27.6937C18.9656 27.3656 19.3594 27.1687 19.7531 27.0375C20.0813 26.9062 20.475 26.8406 20.9344 26.8406C22.05 26.8406 23.0344 27.3656 23.6906 28.2187C22.9687 26.8406 21.5906 25.8563 19.95 25.6594C20.5406 23.4938 22.5094 21.9187 24.8063 21.9187C25.0688 21.9187 25.2656 21.9187 25.5281 21.9844C25.9875 22.05 26.4469 22.1813 26.8406 22.3781C28.4156 23.1 29.5313 24.5438 29.7938 26.3156C29.7938 24.2813 28.8094 22.5094 27.2344 21.4594C28.2188 19.8844 29.8594 18.8344 31.8281 18.8344ZM31.8281 17.0625C29.4656 17.0625 27.3 18.3094 25.9875 20.3438H25.8563C25.5281 20.2781 25.2 20.2781 24.8719 20.2781C21.8531 20.2781 19.1625 22.3125 18.375 25.3313L18.1781 26.0531C17.9813 26.1844 17.7844 26.3812 17.5875 26.5125C16.4062 27.4312 15.75 28.875 15.75 30.45C15.75 32.7469 17.1938 34.7813 19.3594 35.5031C19.8844 35.7 20.475 35.7656 21 35.7656H35.9625C36.4219 35.7656 36.8813 35.7 37.3406 35.6344C40.0969 34.9781 42 32.4844 42 29.5969C42 27.3656 40.8188 25.3312 38.9813 24.2156C38.9156 24.15 38.7844 24.0844 38.7188 24.0844V24.0188C38.7188 20.2125 35.6344 17.0625 31.8281 17.0625Z" fill="#37AFE2"/>
</svg>
