<svg width="31" height="23" viewBox="0 0 31 23" fill="none" xmlns="http://www.w3.org/2000/svg">
<rect y="0.679932" width="31" height="22.32" rx="6.2" fill="#F4A73F"/>
<path d="M21.0799 15.6632C20.8168 15.6632 20.5568 15.6067 20.3173 15.4976C20.0705 15.3855 19.8026 15.327 19.5315 15.3261C19.2598 15.3272 18.9914 15.3856 18.7438 15.4976C18.5044 15.6066 18.2444 15.663 17.9814 15.663C17.7183 15.663 17.4583 15.6066 17.2189 15.4976C16.9712 15.3862 16.703 15.3278 16.4315 15.3261C16.1598 15.3274 15.8914 15.3858 15.6438 15.4976C15.404 15.6066 15.1435 15.663 14.8801 15.663C14.6166 15.663 14.3562 15.6066 14.1163 15.4976C13.8699 15.3858 13.6026 15.3273 13.332 15.3261C13.0604 15.3273 12.7921 15.3858 12.5446 15.4976C12.3048 15.6067 12.0444 15.6631 11.781 15.6631C11.5175 15.6631 11.2571 15.6067 11.0173 15.4976C10.7699 15.3856 10.5016 15.3271 10.2299 15.3261C9.95928 15.3276 9.69197 15.3861 9.44537 15.4976C9.20486 15.6065 8.94394 15.6629 8.67993 15.6632V14.5276C8.94353 14.5261 9.20404 14.4706 9.44537 14.3646C9.69131 14.2507 9.95893 14.1913 10.2299 14.1905C10.5105 14.1905 10.7794 14.255 11.0173 14.3646C11.2573 14.4706 11.5165 14.5261 11.7789 14.5276C12.0426 14.5265 12.3033 14.471 12.5446 14.3646C12.7914 14.2504 13.06 14.191 13.332 14.1905C13.6105 14.1905 13.8781 14.255 14.1163 14.3646C14.3573 14.4707 14.6176 14.5262 14.881 14.5276C15.1437 14.5262 15.4034 14.4707 15.6438 14.3646C15.8908 14.2505 16.1595 14.1911 16.4315 14.1905C16.7087 14.1905 16.9773 14.255 17.2189 14.3646C17.4501 14.4661 17.7097 14.5276 17.981 14.5276C18.2438 14.5264 18.5035 14.4709 18.7438 14.3646C18.9907 14.2503 19.2594 14.1909 19.5315 14.1905C19.812 14.1905 20.0804 14.255 20.3173 14.3646C20.5576 14.4709 20.8172 14.5264 21.0799 14.5276V15.6632V15.6632ZM19.284 12.4506C20.0983 12.4506 20.7591 11.7918 20.7591 10.9838C20.7591 10.1749 20.0983 9.51953 19.284 9.51953C18.4684 9.51953 17.8084 10.1752 17.8084 10.9838C17.8084 11.7918 18.4098 12.4506 19.284 12.4506ZM10.6926 13.2752C10.807 13.3023 10.915 13.3418 11.0176 13.3878C11.2571 13.4958 11.5167 13.5522 11.7794 13.5534C12.0507 13.5534 12.3139 13.4919 12.5449 13.3878C12.7921 13.2747 13.0604 13.2152 13.3323 13.2132C13.6107 13.2132 13.8789 13.2809 14.1166 13.3878C14.357 13.4959 14.6176 13.5523 14.8812 13.5534C15.1499 13.5534 15.4129 13.4919 15.6438 13.3878C15.8911 13.2748 16.1596 13.2152 16.4315 13.2132C16.7089 13.2132 16.9779 13.2809 17.2189 13.3878C17.4503 13.4917 17.7097 13.5534 17.9815 13.5534C18.1791 13.5534 18.3695 13.5201 18.549 13.464L16.0884 9.05789L18.9505 8.53942C19.3705 8.45985 19.6754 8.13228 19.6754 7.71301C19.6754 7.25059 19.2964 6.87988 18.8327 6.87988L18.7371 6.88272L14.316 7.68149C14.0057 7.75202 13.5947 8.20307 13.8288 8.75642L13.8665 8.84554L15.0202 10.913L10.6926 13.2752V13.2752Z" fill="black"/>
</svg>
