<svg width="14" height="22" viewBox="0 0 14 22" fill="none" xmlns="http://www.w3.org/2000/svg">
<path d="M7.89524 4C9.0507 4 9.99608 3.1 9.99608 2C9.99608 0.9 9.0507 0 7.89524 0C6.73978 0 5.7944 0.9 5.7944 2C5.7944 3.1 6.73978 4 7.89524 4ZM4.00869 7.4L1.31961 20.31C1.18306 20.92 1.68726 21.5 2.34902 21.5H2.43306C2.92675 21.5 3.34692 21.18 3.46247 20.72L5.16415 13.5L7.37003 15.5V20.5C7.37003 21.05 7.84272 21.5 8.42045 21.5C8.99818 21.5 9.47087 21.05 9.47087 20.5V14.86C9.47087 14.31 9.23978 13.79 8.81961 13.41L7.26499 12L7.89524 9C9.07898 10.2883 10.6995 11.141 12.4751 11.41C13.1053 11.5 13.6726 11.02 13.6726 10.41C13.6726 9.92 13.2944 9.51 12.7797 9.43C11.1831 9.18 9.85953 8.28 9.15575 7.1L8.10533 5.5C7.82165 5.06816 7.38581 4.74651 6.8758 4.59261C6.3658 4.43871 5.81491 4.46259 5.32171 4.66L1.2986 6.28C0.918048 6.43485 0.59369 6.69277 0.365848 7.02168C0.138007 7.3506 0.0167288 7.736 0.0170907 8.13V10.5C0.0170907 11.05 0.48978 11.5 1.06751 11.5C1.64524 11.5 2.11793 11.05 2.11793 10.5V8.1L4.00869 7.4Z" fill="black"/>
</svg>
