<svg width="34" height="34" viewBox="0 0 34 34" fill="none" xmlns="http://www.w3.org/2000/svg">
<path d="M14.1723 8.24952C15.0868 8.25761 15.9904 8.04976 16.8095 7.64286C17.6286 7.23597 18.3402 6.64151 18.8863 5.90783C19.438 6.63544 20.1507 7.22546 20.9685 7.63167C21.7864 8.03788 22.6871 8.24926 23.6003 8.24926C24.5134 8.24926 25.4142 8.03788 26.232 7.63167C27.0498 7.22546 27.7625 6.63544 28.3143 5.90783C28.8604 6.64151 29.5719 7.23597 30.391 7.64286C31.2101 8.04976 32.1137 8.25761 33.0283 8.24952V5.89251C32.2258 5.84556 31.4554 5.56097 30.8152 5.07494C30.1749 4.58891 29.6936 3.92341 29.4327 3.1631C29.3534 2.92901 29.203 2.72551 29.0025 2.581C28.802 2.43649 28.5614 2.35818 28.3143 2.357C28.0675 2.35523 27.8266 2.43173 27.6261 2.57551C27.4255 2.71929 27.2757 2.92295 27.1982 3.15721C26.9378 3.91881 26.4566 4.58564 25.8158 5.07277C25.175 5.55989 24.4038 5.84526 23.6003 5.89251C22.7978 5.84556 22.0274 5.56097 21.3871 5.07494C20.7469 4.58891 20.2656 3.92341 20.0047 3.1631C19.9254 2.92901 19.775 2.72551 19.5745 2.581C19.374 2.43649 19.1334 2.35818 18.8863 2.357C18.6387 2.35168 18.3961 2.4268 18.1949 2.57109C17.9936 2.71537 17.8446 2.92104 17.7702 3.15721C17.5098 3.91881 17.0285 4.58564 16.3878 5.07277C15.747 5.55989 14.9758 5.84526 14.1723 5.89251H12.9938V4.71401C12.9938 3.46378 12.4971 2.26475 11.6131 1.3807C10.729 0.496653 9.52998 0 8.27975 0C7.02951 0 5.83049 0.496653 4.94644 1.3807C4.06239 2.26475 3.56574 3.46378 3.56574 4.71401V17.9863C2.16443 18.9548 1.09661 20.3327 0.508394 21.9313C-0.0798247 23.53 -0.159708 25.2713 0.279675 26.9171C0.719057 28.5629 1.65624 30.0327 2.96299 31.1255C4.26974 32.2182 5.88222 32.8805 7.57979 33.0217C9.27736 33.1629 10.9771 32.7761 12.4464 31.9142C13.9157 31.0524 15.0829 29.7576 15.7881 28.207C16.4933 26.6564 16.7022 24.9258 16.3862 23.2519C16.0702 21.5781 15.2446 20.0427 14.0226 18.856H14.1723C15.0868 18.8641 15.9904 18.6563 16.8095 18.2494C17.6286 17.8425 18.3402 17.248 18.8863 16.5144C19.438 17.242 20.1507 17.832 20.9685 18.2382C21.7864 18.6444 22.6871 18.8558 23.6003 18.8558C24.5134 18.8558 25.4142 18.6444 26.232 18.2382C27.0498 17.832 27.7625 17.242 28.3143 16.5144C28.8604 17.248 29.5719 17.8425 30.391 18.2494C31.2101 18.6563 32.1137 18.8641 33.0283 18.856V16.499C32.2258 16.4521 31.4554 16.1675 30.8152 15.6815C30.1749 15.1954 29.6936 14.5299 29.4327 13.7696C29.3534 13.5355 29.203 13.332 29.0025 13.1875C28.802 13.043 28.5614 12.9647 28.3143 12.9635C28.0675 12.9618 27.8266 13.0383 27.6261 13.182C27.4255 13.3258 27.2757 13.5295 27.1982 13.7637C26.9378 14.5253 26.4566 15.1922 25.8158 15.6793C25.175 16.1664 24.4038 16.4518 23.6003 16.499C22.7978 16.4521 22.0274 16.1675 21.3871 15.6815C20.7469 15.1954 20.2656 14.5299 20.0047 13.7696C19.9254 13.5355 19.775 13.332 19.5745 13.1875C19.374 13.043 19.1334 12.9647 18.8863 12.9635C18.6387 12.9582 18.3961 13.0333 18.1949 13.1776C17.9936 13.3219 17.8446 13.5276 17.7702 13.7637C17.5098 14.5253 17.0285 15.1922 16.3878 15.6793C15.747 16.1664 14.9758 16.4518 14.1723 16.499H12.9938V8.24952H14.1723ZM5.92274 4.71401C5.92274 4.08889 6.17107 3.48938 6.61309 3.04735C7.05512 2.60533 7.65463 2.357 8.27975 2.357C8.90486 2.357 9.50438 2.60533 9.9464 3.04735C10.3884 3.48938 10.6368 4.08889 10.6368 4.71401V11.785H5.92274V4.71401ZM8.27975 30.6411C6.98315 30.6414 5.72269 30.2138 4.69392 29.4247C3.66514 28.6355 2.92557 27.5289 2.58994 26.2765C2.25431 25.0241 2.34139 23.6959 2.83766 22.4981C3.33394 21.3002 4.21166 20.2996 5.33467 19.6515L5.92274 19.3098V14.142H10.6368V19.3109L11.2248 19.6515C12.3478 20.2996 13.2256 21.3002 13.7218 22.4981C14.2181 23.6959 14.3052 25.0241 13.9696 26.2765C13.6339 27.5289 12.8944 28.6355 11.8656 29.4247C10.8368 30.2138 9.57634 30.6414 8.27975 30.6411Z" fill="#37AFE2"/>
</svg>
