<svg width="105" height="106" viewBox="0 0 105 106" fill="none" xmlns="http://www.w3.org/2000/svg">
<path d="M45.0549 26.226C47.9624 26.2517 50.835 25.5909 53.439 24.2974C56.0431 23.0038 58.3051 21.114 60.0412 18.7815C61.7953 21.0947 64.061 22.9704 66.6609 24.2618C69.2609 25.5532 72.1245 26.2252 75.0275 26.2252C77.9305 26.2252 80.794 25.5532 83.394 24.2618C85.9939 22.9704 88.2597 21.0947 90.0137 18.7815C91.7498 21.114 94.0118 23.0038 96.6159 24.2974C99.2199 25.5909 102.092 26.2517 105 26.226V18.7328C102.449 18.5836 99.9997 17.6789 97.9642 16.1337C95.9287 14.5886 94.3989 12.4729 93.5692 10.0558C93.3172 9.31159 92.8391 8.66465 92.2017 8.20524C91.5643 7.74583 90.7994 7.49688 90.0137 7.49314C89.2293 7.4875 88.4633 7.73071 87.8258 8.1878C87.1883 8.64489 86.7121 9.29232 86.4657 10.0371C85.6378 12.4582 84.1078 14.5782 82.0708 16.1268C80.0338 17.6754 77.5819 18.5826 75.0275 18.7328C72.4763 18.5836 70.0272 17.6789 67.9917 16.1337C65.9562 14.5886 64.4263 12.4729 63.5967 10.0558C63.3447 9.31159 62.8666 8.66465 62.2292 8.20524C61.5918 7.74583 60.8269 7.49688 60.0412 7.49314C59.2542 7.47621 58.4829 7.71502 57.8432 8.17372C57.2034 8.63241 56.7297 9.28624 56.4932 10.0371C55.6652 12.4582 54.1353 14.5782 52.0983 16.1268C50.0612 17.6754 47.6093 18.5826 45.0549 18.7328H41.3083V14.9863C41.3083 11.0117 39.7294 7.19985 36.919 4.38938C34.1085 1.57891 30.2967 0 26.3221 0C22.3475 0 18.5357 1.57891 15.7252 4.38938C12.9147 7.19985 11.3358 11.0117 11.3358 14.9863V57.1801C6.88092 60.2591 3.48623 64.6394 1.61623 69.7217C-0.25377 74.8039 -0.507726 80.3398 0.889112 85.572C2.28595 90.8041 5.26534 95.4768 9.41962 98.9507C13.5739 102.425 18.7001 104.53 24.0968 104.979C29.4936 105.428 34.8972 104.198 39.5683 101.458C44.2394 98.7184 47.9498 94.6021 50.1918 89.6726C52.4338 84.7432 53.0979 79.2414 52.0932 73.92C51.0885 68.5987 48.4641 63.7177 44.5791 59.9451H45.0549C47.9624 59.9708 50.835 59.31 53.439 58.0165C56.0431 56.7229 58.3051 54.8331 60.0412 52.5007C61.7953 54.8138 64.061 56.6895 66.6609 57.9809C69.2609 59.2723 72.1245 59.9443 75.0275 59.9443C77.9305 59.9443 80.794 59.2723 83.394 57.9809C85.9939 56.6895 88.2597 54.8138 90.0137 52.5007C91.7498 54.8331 94.0118 56.7229 96.6159 58.0165C99.2199 59.31 102.092 59.9708 105 59.9451V52.4519C102.449 52.3027 99.9997 51.398 97.9642 49.8528C95.9287 48.3077 94.3989 46.192 93.5692 43.7749C93.3172 43.0307 92.8391 42.3838 92.2017 41.9243C91.5643 41.4649 90.7994 41.216 90.0137 41.2122C89.2293 41.2066 88.4633 41.4498 87.8258 41.9069C87.1883 42.364 86.7121 43.0114 86.4657 43.7562C85.6378 46.1774 84.1078 48.2973 82.0708 49.8459C80.0338 51.3945 77.5819 52.3017 75.0275 52.4519C72.4763 52.3027 70.0272 51.398 67.9917 49.8528C65.9562 48.3077 64.4263 46.192 63.5967 43.7749C63.3447 43.0307 62.8666 42.3838 62.2292 41.9243C61.5918 41.4649 60.8269 41.216 60.0412 41.2122C59.2542 41.1953 58.4829 41.4341 57.8432 41.8928C57.2034 42.3515 56.7297 43.0054 56.4932 43.7562C55.6652 46.1774 54.1353 48.2973 52.0983 49.8459C50.0612 51.3945 47.6093 52.3017 45.0549 52.4519H41.3083V26.226H45.0549ZM18.8289 14.9863C18.8289 12.999 19.6184 11.0931 21.0236 9.68782C22.4289 8.28259 24.3348 7.49314 26.3221 7.49314C28.3094 7.49314 30.2153 8.28259 31.6205 9.68782C33.0258 11.0931 33.8152 12.999 33.8152 14.9863V37.4657H18.8289V14.9863ZM26.3221 97.4108C22.2001 97.4118 18.193 96.0525 14.9224 93.5437C11.6518 91.0349 9.30065 87.5168 8.23365 83.5353C7.16666 79.5538 7.44348 75.3315 9.02119 71.5234C10.5989 67.7153 13.3893 64.5343 16.9594 62.474L18.8289 61.3875V44.9588H33.8152V61.3913L35.6847 62.474C39.2549 64.5343 42.0453 67.7153 43.623 71.5234C45.2007 75.3315 45.4775 79.5538 44.4105 83.5353C43.3435 87.5168 40.9923 91.0349 37.7218 93.5437C34.4512 96.0525 30.4441 97.4118 26.3221 97.4108Z" fill="#2A92BF"/>
</svg>
